<?xml version="1.0" encoding="UTF-8" standalone="no"?>
<!-- Created with Inkscape (http://www.inkscape.org/) -->

<svg
   xmlns:dc="http://purl.org/dc/elements/1.1/"
   xmlns:cc="http://creativecommons.org/ns#"
   xmlns:rdf="http://www.w3.org/1999/02/22-rdf-syntax-ns#"
   xmlns:svg="http://www.w3.org/2000/svg"
   xmlns="http://www.w3.org/2000/svg"
   xmlns:sodipodi="http://sodipodi.sourceforge.net/DTD/sodipodi-0.dtd"
   xmlns:inkscape="http://www.inkscape.org/namespaces/inkscape"
   width="40"
   height="40"
   viewBox="30 85 155 110"
   version="1.1"
   id="svg8"
   inkscape:version="0.92.5 (2060ec1f9f, 2020-04-08)"
   sodipodi:docname="itu.svg">
  <defs
     id="defs2" />
  <sodipodi:namedview
     id="base"
     pagecolor="#ffffff"
     bordercolor="#666666"
     borderopacity="1.0"
     inkscape:pageopacity="0.0"
     inkscape:pageshadow="2"
     inkscape:zoom="0.34883505"
     inkscape:cx="310.37018"
     inkscape:cy="507.14288"
     inkscape:document-units="mm"
     inkscape:current-layer="layer1"
     showgrid="false"
     inkscape:window-width="1024"
     inkscape:window-height="745"
     inkscape:window-x="-8"
     inkscape:window-y="-8"
     inkscape:window-maximized="1"
     inkscape:snap-text-baseline="true" />
  <metadata
     id="metadata5">
    <rdf:RDF>
      <cc:Work
         rdf:about="">
        <dc:format>image/svg+xml</dc:format>
        <dc:type
           rdf:resource="http://purl.org/dc/dcmitype/StillImage" />
        <dc:title></dc:title>
      </cc:Work>
    </rdf:RDF>
  </metadata>
  <g
     inkscape:label="Layer 1"
     inkscape:groupmode="layer"
     id="layer1">
    <path
       id="path169"
       style="fill:#000000;stroke-width:0.73477578"
       d="m 100.18114,101.98009 c -3.025484,-0.007 -6.442139,-0.004 -10.272125,0.01 -21.383568,0.0639 -29.699706,0.31446 -29.699706,0.89472 -2e-5,0.44323 1.719119,1.02415 3.819562,1.2908 8.971185,1.1389 16.426713,5.50217 19.612305,11.47793 1.392452,2.61207 1.600929,4.83545 2.163376,23.05095 0.885905,28.6901 0.840828,47.21548 -0.1221,49.85896 -0.566021,1.55388 -1.589157,2.50646 -3.340554,3.11254 -1.388292,0.48042 -2.405628,1.05781 -2.260428,1.28252 0.369868,0.57274 19.185475,0.51387 19.185475,-0.06 0,-0.25782 -0.98842,-0.79848 -2.195727,-1.20125 -3.975108,-1.32616 -4.110293,-2.19365 -3.947926,-25.28541 0.08199,-11.66259 0.414081,-27.54207 0.737824,-35.28786 l 0.588589,-14.08358 2.627774,-3.52713 c 3.226711,-4.33191 9.373331,-7.66044 16.791461,-9.09295 9.50472,-1.83544 7.49054,-2.39005 -13.6878,-2.43853 z m 11.78011,28.49027 c -6.08692,0 -6.15,0.0185 -4.82976,1.41456 1.17404,1.24151 1.39522,3.52201 1.80646,18.63651 0.43215,15.88196 0.5892,17.37753 2.01728,19.20713 2.35184,3.01309 4.86743,4.53996 8.59297,5.21589 6.00065,1.08871 12.2726,-0.24465 16.0359,-3.40802 3.36986,-2.83266 3.75691,-4.7853 4.25787,-21.48222 0.46446,-15.48109 0.53661,-16.05493 2.2406,-17.79073 l 1.76159,-1.79312 -6.32837,0.004 -6.32731,0.004 2.25312,1.72386 2.25415,1.72478 0.2317,14.45199 c 0.22205,13.85545 0.16098,14.5713 -1.45374,17.32075 -1.08878,1.85394 -2.78095,3.37615 -4.78698,4.3055 -5.63191,2.60909 -9.36115,1.52654 -12.1485,-3.52713 -1.66548,-3.01962 -1.74698,-3.86149 -1.74698,-17.98927 0,-12.25159 0.20234,-15.09909 1.16883,-16.41959 l 1.16987,-1.59736 z m -52.427149,0.0277 c -4.622273,0.021 -7.790872,0.42948 -6.45986,0.99258 4.223141,1.78665 4.130553,1.31338 4.130553,21.21353 0,15.50596 -0.184439,18.67005 -1.168828,20.01505 -0.643084,0.87863 -1.656871,1.59735 -2.253124,1.59735 -0.596232,0 -1.084296,0.24274 -1.084296,0.53922 0,0.29654 3.554825,0.53926 7.900024,0.53926 6.580241,0 7.67886,-0.15259 6.572569,-0.91227 -4.191698,-2.87868 -3.957317,-1.65604 -3.957317,-20.61059 0,-18.78801 0.266031,-20.39637 3.650501,-22.06391 1.911198,-0.94166 1.827513,-0.98523 -2.33557,-1.19387 -1.750763,-0.0878 -3.453894,-0.12336 -4.994652,-0.1163 z m 192.686509,44.64583 c -0.52867,0.60389 -0.99454,1.28448 -1.53618,2.15504 0.12846,0.18218 0.25109,0.36856 0.36526,0.56048 0.36269,-0.88061 0.76745,-1.81202 1.17092,-2.71552 z M 127.66529,208.3958 c 0.0195,0.0795 0.0403,0.1576 0.0606,0.23454 0.0492,-0.0272 0.0825,-0.0558 0.0825,-0.0859 0,-0.0407 -0.0558,-0.092 -0.14295,-0.14865 z"
       inkscape:connector-curvature="0" />
  </g>
</svg>
