<?xml version="1.0" encoding="UTF-8" standalone="no"?>
<!-- Created with Inkscape (http://www.inkscape.org/) -->

<svg
   xmlns:dc="http://purl.org/dc/elements/1.1/"
   xmlns:cc="http://creativecommons.org/ns#"
   xmlns:rdf="http://www.w3.org/1999/02/22-rdf-syntax-ns#"
   xmlns:svg="http://www.w3.org/2000/svg"
   xmlns="http://www.w3.org/2000/svg"
   xmlns:sodipodi="http://sodipodi.sourceforge.net/DTD/sodipodi-0.dtd"
   xmlns:inkscape="http://www.inkscape.org/namespaces/inkscape"
   width="55"
   height="54"
   viewBox="25 95 160 100"
   version="1.1"
   id="svg8"
   inkscape:version="0.92.5 (2060ec1f9f, 2020-04-08)"
   sodipodi:docname="matplotlib.svg">
  <defs
     id="defs2">
    <style
       id="style2">.cls-1{fill:#130754;}.cls-2{fill:#48e5ac;}.cls-3{fill:#e70488;}</style>
  </defs>
  <sodipodi:namedview
     id="base"
     pagecolor="#ffffff"
     bordercolor="#666666"
     borderopacity="1.0"
     inkscape:pageopacity="0.0"
     inkscape:pageshadow="2"
     inkscape:zoom="0.35"
     inkscape:cx="400"
     inkscape:cy="560"
     inkscape:document-units="mm"
     inkscape:current-layer="layer1"
     showgrid="false"
     inkscape:window-width="1024"
     inkscape:window-height="745"
     inkscape:window-x="-8"
     inkscape:window-y="-8"
     inkscape:window-maximized="1" />
  <metadata
     id="metadata5">
    <rdf:RDF>
      <cc:Work
         rdf:about="">
        <dc:format>image/svg+xml</dc:format>
        <dc:type
           rdf:resource="http://purl.org/dc/dcmitype/StillImage" />
        <dc:title></dc:title>
      </cc:Work>
    </rdf:RDF>
  </metadata>
  <g
     inkscape:label="Layer 1"
     inkscape:groupmode="layer"
     id="layer1">
    <path
       style="fill:#000000;stroke-width:0.30589485"
       d=""
       id="path273"
       inkscape:connector-curvature="0" />
    <g
       style="stroke:#808080"
       id="g584"
       transform="matrix(0.84639691,0,0,0.85067648,27.011783,71.516499)">
      <g
         id="g544"
         style="fill:#ffffff;stroke-width:2">
        <circle
           id="circle534"
           r="88"
           cy="90"
           cx="90" />
        <circle
           id="circle536"
           r="66"
           cy="90"
           cx="90" />
        <circle
           id="circle538"
           r="44"
           cy="90"
           cx="90" />
        <circle
           id="circle540"
           r="22"
           cy="90"
           cx="90" />
        <path
           id="path542"
           d="M 90,2 V 178 M 152,152 28,28 M 152,28 28,152 M 178,90 H 2"
           inkscape:connector-curvature="0" />
      </g>
      <g
         id="g560"
         style="opacity:0.8">
        <path
           id="path546"
           d="m 90,90 h 18 a 18,18 0 0 0 0,-5 z"
           inkscape:connector-curvature="0"
           style="fill:#4444cc" />
        <path
           id="path548"
           d="M 90,90 124,47 A 55,55 0 0 0 109,39 Z"
           inkscape:connector-curvature="0"
           style="fill:#bbcc33" />
        <path
           id="path550"
           d="M 90,90 74,18 A 74,74 0 0 0 43,33 Z"
           inkscape:connector-curvature="0"
           style="fill:#dd9933" />
        <path
           id="path552"
           d="M 90,90 32,62 a 65,65 0 0 0 -5,39 z"
           inkscape:connector-curvature="0"
           style="fill:#ddbb33" />
        <path
           id="path554"
           d="m 90,90 -33,16 a 37,37 0 0 0 2,5 z"
           inkscape:connector-curvature="0"
           style="fill:#33bbbb" />
        <path
           id="path556"
           d="m 90,90 -10,45 a 46,46 0 0 0 18,0 z"
           inkscape:connector-curvature="0"
           style="fill:#33cc99" />
        <path
           id="path558"
           d="m 90,90 46,58 a 74,74 0 0 0 12,-12 z"
           inkscape:connector-curvature="0"
           style="fill:#dd7733" />
      </g>
    </g>
  </g>
</svg>
