<?xml version="1.0" encoding="UTF-8" standalone="no"?>
<!-- Created with Inkscape (http://www.inkscape.org/) -->

<svg
   xmlns:dc="http://purl.org/dc/elements/1.1/"
   xmlns:cc="http://creativecommons.org/ns#"
   xmlns:rdf="http://www.w3.org/1999/02/22-rdf-syntax-ns#"
   xmlns:svg="http://www.w3.org/2000/svg"
   xmlns="http://www.w3.org/2000/svg"
   xmlns:sodipodi="http://sodipodi.sourceforge.net/DTD/sodipodi-0.dtd"
   xmlns:inkscape="http://www.inkscape.org/namespaces/inkscape"
   width="210mm"
   height="297mm"
   viewBox="0 0 210 297"
   version="1.1"
   id="svg8"
   inkscape:version="0.92.5 (2060ec1f9f, 2020-04-08)"
   sodipodi:docname="linux.svg">
  <defs
     id="defs2" />
  <sodipodi:namedview
     id="base"
     pagecolor="#ffffff"
     bordercolor="#666666"
     borderopacity="1.0"
     inkscape:pageopacity="0.0"
     inkscape:pageshadow="2"
     inkscape:zoom="0.35"
     inkscape:cx="400"
     inkscape:cy="560"
     inkscape:document-units="mm"
     inkscape:current-layer="layer1"
     showgrid="false"
     inkscape:window-width="1024"
     inkscape:window-height="745"
     inkscape:window-x="-8"
     inkscape:window-y="-8"
     inkscape:window-maximized="1" />
  <metadata
     id="metadata5">
    <rdf:RDF>
      <cc:Work
         rdf:about="">
        <dc:format>image/svg+xml</dc:format>
        <dc:type
           rdf:resource="http://purl.org/dc/dcmitype/StillImage" />
        <dc:title></dc:title>
      </cc:Work>
    </rdf:RDF>
  </metadata>
  <g
     inkscape:label="Layer 1"
     inkscape:groupmode="layer"
     id="layer1">
    <path
       style="fill:#000000;stroke-width:0.11053105"
       d="m 132.85744,217.33665 c -4.60749,-0.53736 -7.58596,-2.34322 -9.8192,-5.95342 -0.0919,-0.14856 -0.56524,-0.23336 -2.4987,-0.44764 -2.48385,-0.27529 -7.2834,-0.7072 -10.50709,-0.94555 -2.50141,-0.18494 -9.50412,-0.18987 -11.417086,-0.008 -3.429103,0.32596 -6.348943,0.93112 -8.688343,1.80075 -1.27706,0.47473 -1.34152,0.51495 -2.44891,1.52802 -2.49303,2.2807 -4.49739,3.10443 -7.78581,3.19973 -3.06952,0.089 -5.06738,-0.37219 -13.86872,-3.20123 -6.39556,-2.05569 -11.56881,-3.3795 -15.88616,-4.06513 -3.0764,-0.48857 -4.64054,-0.82033 -6.4565,-1.36943 -3.71761,-1.12414 -5.0847,-2.33702 -4.84752,-4.30074 0.14419,-1.19378 0.39955,-1.84069 1.20468,-3.05181 1.76102,-2.64904 2.6189,-4.66992 2.61967,-6.17107 2e-4,-0.38978 -0.22719,-2.22343 -0.50532,-4.07477 -0.63111,-4.20099 -0.71443,-5.08612 -0.60044,-6.37833 0.21784,-2.46932 1.48426,-4.47394 3.4425,-5.44912 l 0.58093,-0.28931 3.69216,-0.0496 3.69216,-0.0496 0.7957,-0.38142 c 0.93193,-0.44672 1.03943,-0.6133 1.93798,-3.0031 0.30568,-0.81299 0.71679,-1.68081 0.9348,-1.97329 l 0.38914,-0.52207 -0.248,-0.54754 c -0.32836,-0.72494 -0.39146,-1.52231 -0.22793,-2.88054 0.30263,-2.51368 1.22696,-4.76013 3.62852,-8.81857 4.13429,-6.98661 4.98858,-8.93326 6.8611,-15.63411 1.02555,-3.66995 1.6098,-5.069 3.04907,-7.30134 1.02083,-1.58332 1.85758,-2.61534 5.09618,-6.28551 3.81284,-4.32092 4.47081,-5.1076 5.57153,-6.66137 2.15289,-3.03902 3.13712,-5.86657 3.14325,-9.03003 0.003,-1.45802 -0.0483,-2.0784 -0.62537,-7.58245 -0.58337,-5.56457 -0.73815,-8.081599 -0.80146,-13.032869 -0.0629,-4.916287 0.0123,-6.245234 0.49178,-8.691038 0.8068,-4.115683 2.17912,-6.727682 5.26598,-10.022995 1.57505,-1.681413 3.66119,-2.923565 6.05149,-3.60323 2.86926,-0.815856 5.281446,-1.130779 9.260149,-1.208961 2.47641,-0.04866 3.11894,-0.02878 3.97595,0.123008 0.56221,0.09958 1.55092,0.25163 2.19713,0.337896 3.95421,0.527861 7.96652,2.273196 11.04913,4.806313 1.80346,1.481983 2.74542,2.609469 4.58225,5.484752 1.0154,1.589457 2.32319,5.882663 2.99559,9.833879 0.3767,2.213582 0.95974,7.262426 1.11787,9.680065 0.1495,2.28583 0.44312,5.0738 0.623,5.91553 0.18774,0.87849 0.29948,1.56012 0.61714,3.76468 0.24694,1.7137 0.66993,3.38757 1.25217,4.95509 0.44161,1.18892 2.66986,5.16749 3.82327,6.8265 0.47327,0.68074 1.12136,1.62515 1.44019,2.09869 1.25718,1.86725 4.88177,6.63982 6.03703,7.94911 4.01691,4.55241 6.9905,9.09997 8.84207,13.52229 0.26014,0.62135 0.72474,1.66234 1.03243,2.31332 2.94966,6.24057 4.15011,15.23607 2.93533,21.99571 -0.18509,1.02989 -0.68053,3.10062 -0.96941,4.05174 -0.0624,0.20536 -0.0162,0.24437 0.36588,0.30924 1.30127,0.22092 1.99166,1.22274 2.74001,3.97595 0.19298,0.70999 0.45818,2.06532 0.58933,3.01184 0.13114,0.94652 0.30876,1.92911 0.39467,2.18353 0.28455,0.84248 1.15061,1.93028 2.06085,2.58849 0.46306,0.33483 1.15809,0.84135 1.54452,1.12558 0.38643,0.28424 1.34125,0.81135 2.12182,1.17139 2.24265,1.03439 3.17504,1.58389 3.98179,2.34668 1.24265,1.17491 1.64395,2.34615 1.35518,3.95523 -0.37285,2.07753 -2.01867,3.68415 -4.85655,4.74087 -1.14774,0.42738 -6.46976,2.92898 -7.4673,3.50998 -1.24565,0.72552 -3.37948,2.15709 -4.80246,3.22194 -0.99848,0.74719 -6.26831,4.9905 -8.0079,6.44804 -1.17932,0.98811 -2.90763,2.19752 -4.05331,2.8364 -1.65788,0.92448 -2.87631,1.30248 -4.81315,1.4932 -1.27094,0.12515 -0.98526,0.13593 -3.18073,-0.12012 z m 2.79117,-1.3276 c 0.81605,-0.0709 3.06709,-0.61193 3.59748,-0.8646 0.20553,-0.0979 0.78301,-0.4558 1.28329,-0.7953 0.50028,-0.3395 1.13978,-0.72685 1.42112,-0.86077 0.70588,-0.33602 0.87626,-0.46774 5.62584,-4.34952 5.72407,-4.67822 6.77464,-5.40458 10.91828,-7.5489 1.60856,-0.83243 4.62555,-2.16487 5.5128,-2.43471 0.79401,-0.24147 1.96321,-0.79458 2.5842,-1.22247 0.91736,-0.63211 1.50939,-1.87853 1.51102,-3.18122 0.001,-1.09457 -0.40248,-1.83041 -1.5766,-2.87269 -1.01883,-0.90442 -1.7264,-1.33158 -3.21119,-1.93853 -1.13365,-0.46342 -1.71905,-0.82314 -3.0166,-1.85368 -0.94653,-0.75176 -1.48666,-1.43866 -2.20991,-2.81041 -0.67985,-1.28944 -1.03841,-2.41015 -1.44008,-4.50104 -0.38194,-1.98827 -0.87972,-3.7541 -1.17999,-4.18595 -0.41605,-0.59838 -1.47159,-0.31688 -2.4529,0.65415 -0.34408,0.34047 -1.15341,1.0727 -1.79851,1.62717 -0.6451,0.55448 -1.41708,1.30079 -1.71551,1.65848 -0.63325,0.75899 -2.61213,2.25422 -3.59368,2.71535 -1.51659,0.7125 -2.10746,0.83336 -4.03394,0.82516 -1.45758,-0.006 -1.92671,-0.0496 -2.72395,-0.25219 -2.14267,-0.54439 -3.7102,-1.7233 -4.67314,-3.51457 -0.59439,-1.10568 -0.88655,-1.87362 -1.34893,-3.54559 -0.34894,-1.26176 -0.36267,-1.28032 -1.49226,-2.01756 -0.89761,-0.58584 -2.28332,-0.50074 -3.14143,0.19292 -0.79892,0.64581 -1.21165,1.49505 -1.57569,3.24218 -0.17124,0.82184 -0.20402,2.05447 -0.26799,10.0774 -0.0648,8.12033 -0.0951,9.24306 -0.27196,10.05491 -0.51686,2.37272 -0.6914,3.57917 -0.7389,5.10743 -0.0402,1.29403 -0.15408,2.16791 -0.57567,4.41826 l -0.52553,2.80519 0.54308,0.7975 c 1.82206,2.67565 4.73673,4.33448 8.11344,4.61764 0.53382,0.0448 1.14952,0.0666 1.36823,0.0486 0.21871,-0.018 0.70722,-0.0597 1.08558,-0.0926 z m -54.875379,-0.86432 c 1.89286,-0.46001 3.62884,-1.43328 5.20514,-2.91823 1.15194,-1.08518 1.39846,-1.52329 1.575,-2.79912 0.37077,-2.6795 -0.41943,-6.11592 -2.21571,-9.63569 -1.56418,-3.06497 -2.89524,-5.00554 -7.00421,-10.21155 -3.53393,-4.47743 -3.65791,-4.65175 -5.5788,-7.84344 -2.84222,-4.72257 -4.18453,-6.43111 -6.35703,-8.09148 -0.9616,-0.73493 -2.52114,-1.51892 -3.60377,-1.81166 -0.62421,-0.16878 -0.69234,-0.16659 -1.59051,0.0511 -2.73362,0.66248 -4.1191,2.04519 -4.57599,4.56683 -0.36602,2.02011 -0.68664,2.34835 -2.77086,2.83678 -0.68663,0.16092 -1.43728,0.21485 -3.54107,0.25441 -2.71884,0.0511 -4.17984,0.21279 -5.11563,0.56603 -0.86894,0.328 -1.99059,2.16783 -2.28164,3.74253 -0.17468,0.94516 -0.0822,2.25736 0.28852,4.09222 0.68326,3.3821 0.75598,3.88209 0.75865,5.21666 0.004,2.24215 -0.39009,3.4897 -1.9721,6.23525 -1.36649,2.3715 -1.96811,3.93468 -1.78358,4.63418 0.12723,0.48234 0.75224,1.17299 1.44741,1.59943 1.5766,0.96716 3.73214,1.56072 8.23056,2.2664 6.23984,0.97887 9.93835,1.96859 19.72568,5.27854 2.86873,0.97016 5.46482,1.74756 6.91135,2.0696 1.19364,0.26573 2.91328,0.22576 4.24859,-0.0988 z m 20.068009,-13.6448 c 6.86213,-0.4512 12.57381,-2.49102 17.56932,-6.27457 1.49117,-1.1294 3.72766,-3.24517 5.04434,-4.77206 1.76459,-2.0463 1.64162,-1.75023 1.57415,-3.79033 -0.0416,-1.25739 -0.11276,-1.897 -0.25417,-2.28388 -0.17184,-0.47016 -0.18838,-0.84009 -0.13221,-2.95756 0.0693,-2.61226 0.23382,-3.63636 0.82027,-5.10601 0.56727,-1.42158 1.72396,-2.79141 2.7354,-3.23946 1.07371,-0.47563 2.79805,-0.3028 3.96032,0.39695 0.30377,0.18288 0.57118,0.3147 0.59423,0.29293 0.023,-0.0218 0.13185,-0.83472 0.24179,-1.80657 0.16631,-1.4702 0.20124,-2.83269 0.208,-8.11198 0.009,-7.01221 -0.0443,-7.7943 -0.72792,-10.68301 -1.27811,-5.40089 -1.81772,-6.65702 -4.50824,-10.49434 -0.94905,-1.35357 -1.908,-2.80647 -2.131,-3.22866 -0.223,-0.42219 -0.72399,-1.32451 -1.11332,-2.00515 -0.42581,-0.74443 -0.7847,-1.53758 -0.9007,-1.99055 -0.40077,-1.56494 -0.6132,-2.72383 -0.69011,-3.76475 l -0.0795,-1.07552 -0.93449,-1.66795 c -0.51397,-0.91738 -1.26709,-2.29928 -1.6736,-3.07089 -0.40651,-0.77162 -0.89559,-1.65485 -1.08685,-1.96275 -0.19125,-0.3079 -0.73322,-1.4611 -1.20436,-2.56268 -1.00596,-2.35199 -2.08414,-4.65066 -2.2183,-4.72936 -0.052,-0.0305 -1.13306,0.70934 -2.40227,1.64415 -1.26921,0.9348 -2.6162,1.89729 -2.99332,2.13886 -2.34317,1.50098 -5.29817,2.92827 -7.38516,3.5671 -2.04421,0.62573 -3.361156,0.79857 -5.500192,0.72185 -2.917867,-0.10466 -4.558127,-0.64096 -5.898287,-1.92851 -0.36497,-0.35064 -1.29692,-1.13865 -2.071,-1.75113 l -1.4074,-1.1136 -0.0873,0.71353 c -0.24832,2.02918 -0.78862,3.34493 -3.01994,7.35409 -2.153,3.86845 -3.66882,7.4476 -4.01406,9.478 -0.33958,1.99709 -0.3453,2.0101 -3.46735,7.88481 -1.65532,3.11479 -3.23865,6.17356 -3.51852,6.79728 -1.81263,4.03964 -2.96649,7.83111 -3.436,11.29034 -0.20777,1.53079 -0.24486,4.45614 -0.0728,5.73715 0.063,0.46851 0.0991,0.86638 0.0802,0.88415 -0.0741,0.07 -1.18385,-0.874 -1.64379,-1.39826 -0.591,-0.67364 -1.19879,-1.81707 -1.46745,-2.7607 -0.15158,-0.53235 -0.19715,-1.0971 -0.19095,-2.36614 0.009,-1.92489 0.23181,-3.47375 0.79459,-5.53371 1.3451,-4.9235 4.38992,-11.16889 6.85449,-14.05963 0.6793,-0.79676 0.7221,-1.09794 0.17356,-1.2212 -0.16761,-0.0377 -0.42351,-0.17092 -0.56866,-0.29612 l -0.2639,-0.22765 -0.33414,0.37552 c -1.10199,1.23849 -2.7494,4.20413 -4.77589,8.59752 -1.44846,3.14024 -2.05679,4.61831 -2.55994,6.21999 -1.45787,4.64081 -1.40811,7.94532 0.1652,10.96994 0.53457,1.02771 0.69355,1.22363 2.01589,2.48449 2.35036,2.24107 4.90121,4.12691 9.06596,6.70245 3.13914,1.9413 4.35757,2.89242 7.35177,5.7389 2.93951,2.79448 4.29371,4.69651 4.29384,6.03088 1.1e-4,1.16243 -0.4967,1.90121 -2.3181,3.4471 -0.96568,0.81962 -1.90837,1.28849 -2.8007,1.39301 -0.52291,0.0613 -0.60915,0.10389 -0.6087,0.30094 9.6e-4,0.41559 1.65167,3.18928 2.23393,3.75368 2.58268,2.50345 8.10451,3.75163 14.683239,3.31907 z m 53.43036,-26.50496 c 0.0885,-0.1561 0.0928,-0.42302 0.0145,-0.90268 -0.29056,-1.78062 -1.95403,-3.65388 -4.15783,-4.68219 -1.77656,-0.82896 -3.44489,-1.21806 -6.26122,-1.46026 -2.32599,-0.20004 -2.76806,-0.26383 -2.76789,-0.39941 7e-5,-0.0576 0.18041,-0.69433 0.40075,-1.41503 0.47699,-1.56018 1.00173,-3.93604 1.26303,-5.71863 0.25024,-1.70715 0.35387,-6.11734 0.18125,-7.71347 -0.35241,-3.2586 -1.24815,-5.79169 -2.87521,-8.13085 -1.83856,-2.64324 -3.63838,-4.08829 -5.92168,-4.75443 l -0.79493,-0.23192 -0.25595,0.2799 c -0.45119,0.49338 -0.35481,0.63972 0.79161,1.20186 2.75849,1.35262 4.88527,3.56173 5.97273,6.20394 1.94884,4.73512 2.19076,9.95679 0.73097,15.77732 -0.15572,0.62088 -0.57536,1.9892 -0.93254,3.0407 l -0.64943,1.91183 -0.68844,0.32955 c -0.96816,0.46345 -1.58098,0.91136 -2.57389,1.88126 -0.80607,0.7874 -1.76102,2.00579 -2.19298,2.79798 -0.32789,0.60132 -0.21285,1.10741 0.25185,1.10793 0.0445,5e-5 0.2824,-0.25375 0.5286,-0.56401 0.2462,-0.31025 1.03028,-1.15437 1.7424,-1.87582 1.19954,-1.21526 1.37116,-1.34685 2.33353,-1.78924 1.38975,-0.63885 2.00615,-0.76246 3.6866,-0.7393 2.63744,0.0363 4.32141,0.32745 6.49612,1.12297 1.27373,0.46594 1.92751,0.79122 2.48512,1.23645 0.456,0.36411 2.28117,2.78268 2.28087,3.02243 -2.8e-4,0.22178 0.43202,0.68437 0.63976,0.6846 0.0806,9e-5 0.20316,-0.0996 0.27227,-0.22148 z m -53.50402,-52.06568 c 1.02555,-0.19705 2.52562,-0.68475 3.77979,-1.22889 1.70969,-0.74178 3.61333,-1.83304 7.65619,-4.38887 3.32456,-2.10174 4.0064,-2.57781 4.56367,-3.18646 0.95026,-1.03784 1.16895,-1.51394 1.17024,-2.54766 8.8e-4,-0.69794 -0.0348,-0.8689 -0.20211,-0.96812 -0.11175,-0.0663 -0.47014,-0.36498 -0.79642,-0.66379 -0.94514,-0.86557 -3.79168,-2.14972 -6.66386,-3.00624 -0.5309,-0.15832 -1.64829,-0.55738 -2.4831,-0.88679 -2.17003,-0.85629 -3.82198,-1.4019 -5.57929,-1.84273 -1.32578,-0.33258 -1.71755,-0.38616 -2.896377,-0.39608 -1.258185,-0.0106 -1.44641,0.0155 -2.442892,0.33867 -1.4056,0.45585 -4.45629,1.87828 -5.74676,2.67952 -2.82007,1.75095 -4.62559,3.67804 -4.79942,5.12257 -0.0509,0.42281 -0.005,0.5498 0.41033,1.14035 0.25716,0.3655 0.46753,0.69971 0.46748,0.74268 -1.7e-4,0.13249 2.11223,1.5873 3.15516,2.17296 1.21854,0.68427 2.39332,1.16632 3.65641,1.50033 1.2494,0.33039 3.622384,0.36196 5.112052,0.068 3.440937,-0.67898 7.629227,-2.63923 11.853377,-5.54776 l 1.38951,-0.95675 0.0355,0.45217 c 0.0233,0.29703 0.11076,0.50219 0.25486,0.59799 0.12065,0.0802 0.21831,0.20356 0.21703,0.27414 -0.002,0.13198 -1.85805,1.31448 -3.72543,2.374 -4.26135,2.41783 -8.07669,3.75841 -11.338674,3.98402 -3.233845,0.22366 -7.232055,-1.04394 -10.205225,-3.2355 -0.36956,-0.27241 -0.69436,-0.4741 -0.72178,-0.44821 -0.0274,0.0259 0.208,0.47362 0.52313,0.99497 0.49237,0.81456 0.8811,1.23716 2.76343,3.00429 2.2856,2.14571 2.69258,2.45903 4.01171,3.08857 2.04309,0.97504 4.197505,1.22663 6.581479,0.7686 z m -5.777429,-15.96906 c -0.1363,-0.20932 0.0734,-1.26493 0.30694,-1.54534 0.15315,-0.18385 0.33937,-0.27402 0.56544,-0.27376 0.1854,2e-4 0.5367,-0.0957 0.78067,-0.21323 0.47974,-0.231 0.751909,-0.19804 0.852509,0.10325 0.106141,0.31788 -0.138219,0.74143 -0.813499,1.41004 -0.58895,0.58312 -0.68269,0.63585 -1.12947,0.63535 -0.26797,-3e-4 -0.52113,-0.0526 -0.56259,-0.11631 z m 5.291659,-0.57372 c -0.659845,-0.78692 -0.885713,-1.4971 -0.518421,-1.63005 0.321001,-0.1162 1.299961,0.3999 1.840301,0.97019 0.42787,0.45158 0.49907,0.59071 0.46969,0.91783 -0.0344,0.38325 -0.0381,0.38576 -0.61696,0.41696 l -0.58234,0.0314 z m 15.31445,1.06203 c 0.80107,-3.91765 1.02717,-6.11044 0.83965,-8.143029 -0.16059,-1.74056 -0.44203,-2.84145 -1.01988,-3.98937 -0.378,-0.7509 -0.53387,-0.93691 -1.15862,-1.382582 -1.4343,-1.023187 -2.31532,-1.292998 -4.24842,-1.301078 -1.55574,-0.0065 -2.47879,0.205092 -3.85052,0.882666 -1.08168,0.534304 -1.88993,1.644324 -2.30726,3.168704 -0.21218,0.77507 -0.15355,2.81521 0.11839,4.119049 0.32326,1.54996 1.14951,3.48827 1.48711,3.48865 0.0952,1.1e-4 0.37331,0.0972 0.61811,0.21578 0.60052,0.29087 0.72498,0.27151 0.48552,-0.0755 -0.17612,-0.25525 -0.20053,-0.56534 -0.19684,-2.50058 0.004,-2.059019 0.0222,-2.251449 0.26869,-2.830739 0.52953,-1.24451 1.60698,-2.1609 2.94332,-2.50337 0.5945,-0.15235 0.81208,-0.16142 1.35974,-0.0567 0.82351,0.15752 1.673,0.64383 2.46173,1.40928 0.55955,0.54304 0.65573,0.71144 1.04815,1.83513 0.41312,1.182959 0.43183,1.298529 0.42664,2.635259 -0.005,1.18958 -0.0435,1.48944 -0.26112,2.01093 -0.35554,0.85217 -1.0948,1.59517 -1.94565,1.95549 -0.39435,0.16701 -0.65874,0.33999 -0.61719,0.40381 0.11556,0.17746 0.7982,0.41294 1.20536,0.41578 0.20985,0.001 0.74512,0.18781 1.22435,0.42623 0.46832,0.23299 0.88318,0.42605 0.92191,0.42902 0.0387,0.003 0.1273,-0.27281 0.19683,-0.61284 z m -25.846359,-0.80377 c -0.0513,-0.0414 -0.35345,-0.25185 -0.67141,-0.46773 -0.66621,-0.4523 -1.09115,-0.9901 -1.43104,-1.8111 -0.33147,-0.80064 -0.43169,-3.73946 -0.15762,-4.622349 0.16322,-0.52581 0.71524,-1.34235 1.36433,-2.0181 0.39843,-0.41479 1.3044,-0.76175 1.99014,-0.76216 0.75103,-4.6e-4 1.22969,0.20862 1.99289,0.87051 0.54988,0.47688 0.61776,0.59268 0.95197,1.62415 0.49428,1.525479 0.57438,1.911749 0.65962,3.181189 0.0654,0.97472 0.0983,1.10242 0.28397,1.10263 0.11546,1.3e-4 0.21003,-0.0743 0.21015,-0.16544 1.1e-4,-0.0911 0.11315,-0.30992 0.25119,-0.48623 0.22717,-0.29015 0.25562,-0.47701 0.29984,-1.96915 0.08,-2.699369 -0.20753,-4.012799 -1.17251,-5.356149 -0.6621,-0.9217 -1.37683,-1.5428 -2.18654,-1.900094 -0.54363,-0.239879 -0.80419,-0.284897 -1.66678,-0.287976 -0.89244,-0.0032 -1.10465,0.03446 -1.66921,0.296124 -0.97077,0.449936 -1.66465,1.232486 -2.22486,2.509176 -0.64521,1.47039 -0.80985,2.12457 -0.96402,3.830439 -0.2635,2.91573 0.26663,4.6667 2.0282,6.69898 l 0.59403,0.68532 0.80548,-0.43842 c 0.44301,-0.24112 0.76349,-0.47226 0.71218,-0.51362 z m 3.12096,-5.6205 c -0.0851,-1.066599 -0.45194,-1.943759 -1.05052,-2.511749 -0.61022,-0.57904 -1.25493,-0.74316 -1.50764,-0.38379 -0.0893,0.12695 -0.23276,0.23074 -0.31886,0.23064 -0.1098,-1.2e-4 -0.15673,0.14433 -0.15715,0.48377 l -6.1e-4,0.48394 0.74199,8.3e-4 c 0.4977,5.6e-4 0.75437,0.0451 0.7796,0.1353 0.20309,0.726009 0.32294,1.197849 0.43715,1.721169 l 0.135,0.61852 0.50162,5.6e-4 0.50162,5.6e-4 z m 20.817899,0.45353 c -0.15674,-0.24401 -0.22531,-0.54486 -0.22678,-0.99502 -0.003,-0.811309 -0.26791,-1.380249 -0.8927,-1.914809 -0.75934,-0.64968 -0.93874,-0.69355 -1.59776,-0.39076 -0.30985,0.14236 -0.56539,0.29178 -0.56787,0.33203 -0.014,0.22787 0.55493,0.84853 0.87343,0.95282 0.49748,0.16289 0.99003,0.758759 1.35234,1.636029 l 0.30083,0.72837 0.49159,5.5e-4 0.4916,5.6e-4 z"
       id="path260"
       inkscape:connector-curvature="0" />
  </g>
</svg>
